<svg width="28" height="27" viewBox="0 0 28 27" fill="none" xmlns="http://www.w3.org/2000/svg">
<path d="M28 27.0001L20.3893 7.47253L6.01585 5.05371L0 27.0001H28Z" fill="#D6A3E4"/>
<path d="M8.43789 16.8334C9.74235 16.8334 10.7998 15.7416 10.7998 14.3949C10.7998 13.0482 9.74235 11.9564 8.43789 11.9564C7.13343 11.9564 6.07596 13.0482 6.07596 14.3949C6.07596 15.7416 7.13343 16.8334 8.43789 16.8334Z" fill="white"/>
<path d="M17.6445 16.8334C18.949 16.8334 20.0064 15.7416 20.0064 14.3949C20.0064 13.0482 18.949 11.9564 17.6445 11.9564C16.34 11.9564 15.2826 13.0482 15.2826 14.3949C15.2826 15.7416 16.34 16.8334 17.6445 16.8334Z" fill="white"/>
<path d="M2.94733 0L3.89612 13.569L13.8687 7.6301L2.94733 0Z" fill="#D6A3E4"/>
<path d="M23.3362 2.69458L13.1416 7.8862L22.7508 14.3954L23.3362 2.69458Z" fill="#D6A3E4"/>
</svg>
