<svg width="185" height="30" viewBox="0 0 185 30" fill="none" xmlns="http://www.w3.org/2000/svg">
<path d="M35.6953 24L42.373 5.45215H46.7275L53.4688 24H49.2158L44.7979 11.0889C44.6963 10.7926 44.6117 10.5133 44.5439 10.251C44.4847 9.98861 44.4297 9.7347 44.3789 9.48926H44.3027C44.252 9.7347 44.1927 9.98861 44.125 10.251C44.0658 10.5133 43.9854 10.7926 43.8838 11.0889L39.5166 24H35.6953ZM39.4912 20.0391L40.3164 17.1318H48.5684L49.4062 20.0391H39.4912ZM54.6494 24V11.0889H58.458L58.5215 12.5869H58.5723C58.86 12.0791 59.2493 11.6475 59.7402 11.292C60.2311 10.9365 60.7812 10.7588 61.3906 10.7588C61.5938 10.7588 61.7884 10.7799 61.9746 10.8223C62.1693 10.8646 62.3047 10.9027 62.3809 10.9365V14.1738C62.237 14.123 62.0719 14.0892 61.8857 14.0723C61.6995 14.0469 61.4964 14.0342 61.2764 14.0342C60.7093 14.0342 60.1846 14.2077 59.7021 14.5547C59.2197 14.8932 58.86 15.3333 58.623 15.875V24H54.6494ZM63.2949 17.7285V17.3223C63.2949 15.2826 63.9001 13.6702 65.1104 12.4854C66.3291 11.3005 67.9541 10.708 69.9854 10.708C71.932 10.708 73.4173 11.1735 74.4414 12.1045C75.474 13.027 76.0241 14.1865 76.0918 15.583L76.1172 15.8242H72.2959V15.6592C72.2959 15.0498 72.1012 14.5505 71.7119 14.1611C71.3311 13.7718 70.7598 13.5771 69.998 13.5771C69.1094 13.5771 68.4365 13.8945 67.9795 14.5293C67.5225 15.1641 67.2939 16.0316 67.2939 17.1318V17.9189C67.2939 19.0192 67.514 19.8952 67.9541 20.5469C68.4027 21.1901 69.084 21.5117 69.998 21.5117C70.819 21.5117 71.4072 21.3044 71.7627 20.8896C72.1182 20.4749 72.2959 19.9798 72.2959 19.4043V19.252H76.1045V19.4551C76.096 20.8346 75.5628 21.9984 74.5049 22.9463C73.4469 23.8857 71.9404 24.3555 69.9854 24.3555C67.9626 24.3555 66.3418 23.763 65.123 22.5781C63.9043 21.3848 63.2949 19.7682 63.2949 17.7285ZM78.1611 24V4.81738H82.084V12.79C82.4479 12.2145 82.96 11.7406 83.6201 11.3682C84.2803 10.9958 85.097 10.8096 86.0703 10.8096C87.3145 10.8096 88.3343 11.1904 89.1299 11.9521C89.9255 12.7139 90.3232 13.9538 90.3232 15.6719V24H86.3877V16.04C86.3877 15.2275 86.2057 14.652 85.8418 14.3135C85.4863 13.9665 85.0039 13.793 84.3945 13.793C83.8444 13.793 83.3747 13.9495 82.9854 14.2627C82.596 14.5674 82.2956 14.9948 82.084 15.5449V24H78.1611ZM92.5449 17.7285V17.3223C92.5449 15.3249 93.1585 13.7253 94.3857 12.5234C95.613 11.3132 97.1999 10.708 99.1465 10.708C101.102 10.708 102.625 11.2793 103.717 12.4219C104.809 13.556 105.354 15.1217 105.354 17.1191V18.4268H95.0332V16.1416H101.508V15.9004C101.508 15.2233 101.305 14.6562 100.898 14.1992C100.492 13.7337 99.904 13.501 99.1338 13.501C98.2536 13.501 97.585 13.8268 97.1279 14.4785C96.6794 15.1217 96.4551 15.9766 96.4551 17.043V17.8809C96.4551 19.0065 96.7005 19.8952 97.1914 20.5469C97.6823 21.1901 98.4017 21.5117 99.3496 21.5117C100.027 21.5117 100.602 21.3551 101.076 21.042C101.559 20.7204 101.944 20.3395 102.231 19.8994L105.164 21.4102C104.749 22.2904 104.047 23.0055 103.057 23.5557C102.075 24.0973 100.86 24.3682 99.4131 24.3682C97.2633 24.3682 95.5791 23.7673 94.3604 22.5654C93.1501 21.3551 92.5449 19.7428 92.5449 17.7285ZM106.065 13.9326V11.0889H114.419V13.9326H106.065ZM108.008 20.1025V12.2695L108.059 11.9648V7.72461H111.905V19.7471C111.905 20.4157 112.015 20.8685 112.235 21.1055C112.464 21.334 112.79 21.4482 113.213 21.4482C113.416 21.4482 113.615 21.4271 113.81 21.3848C114.004 21.3424 114.195 21.2832 114.381 21.207V23.9746C114.169 24.0677 113.865 24.1523 113.467 24.2285C113.077 24.3047 112.625 24.3428 112.108 24.3428C110.847 24.3428 109.849 24.0042 109.112 23.3271C108.376 22.6501 108.008 21.5752 108.008 20.1025ZM115.854 29.2686L115.879 26.4756C116.116 26.5433 116.366 26.5941 116.628 26.6279C116.899 26.6702 117.157 26.6914 117.402 26.6914C117.986 26.6914 118.49 26.5052 118.913 26.1328C119.336 25.7604 119.704 25.041 120.018 23.9746L119.916 23.9619L114.876 11.0889H118.799L121.363 18.4521C121.465 18.7484 121.545 19.0192 121.604 19.2646C121.664 19.5016 121.719 19.7471 121.77 20.001H121.846C121.905 19.7471 121.964 19.5016 122.023 19.2646C122.083 19.0192 122.163 18.7484 122.265 18.4521L124.804 11.0889H128.32L123.052 25.2441C122.493 26.7337 121.795 27.8213 120.957 28.5068C120.128 29.1924 119.095 29.5352 117.859 29.5352C117.411 29.5352 117.03 29.514 116.717 29.4717C116.404 29.4294 116.116 29.3617 115.854 29.2686ZM129.729 29.332V11.0889H133.449L133.513 12.5742H133.576C133.864 12.0664 134.346 11.6475 135.023 11.3174C135.701 10.9788 136.458 10.8096 137.296 10.8096C138.955 10.8096 140.292 11.3936 141.308 12.5615C142.323 13.7295 142.831 15.3122 142.831 17.3096V17.7158C142.831 19.7048 142.327 21.2917 141.32 22.4766C140.313 23.6615 138.997 24.2539 137.372 24.2539C136.526 24.2539 135.781 24.1185 135.138 23.8477C134.494 23.5684 133.999 23.1833 133.652 22.6924V29.332H129.729ZM133.652 19.6328C133.839 20.0983 134.156 20.5088 134.604 20.8643C135.062 21.2113 135.599 21.3848 136.217 21.3848C137.097 21.3848 137.753 21.0758 138.185 20.458C138.616 19.8402 138.832 18.9938 138.832 17.9189V17.1445C138.832 16.0527 138.616 15.2064 138.185 14.6055C137.753 14.0046 137.093 13.7041 136.204 13.7041C135.561 13.7041 135.023 13.8734 134.592 14.2119C134.16 14.5505 133.847 14.9482 133.652 15.4053V19.6328ZM144.443 17.7285V17.3223C144.443 15.3249 145.057 13.7253 146.284 12.5234C147.511 11.3132 149.098 10.708 151.045 10.708C153 10.708 154.523 11.2793 155.615 12.4219C156.707 13.556 157.253 15.1217 157.253 17.1191V18.4268H146.932V16.1416H153.406V15.9004C153.406 15.2233 153.203 14.6562 152.797 14.1992C152.391 13.7337 151.802 13.501 151.032 13.501C150.152 13.501 149.483 13.8268 149.026 14.4785C148.578 15.1217 148.354 15.9766 148.354 17.043V17.8809C148.354 19.0065 148.599 19.8952 149.09 20.5469C149.581 21.1901 150.3 21.5117 151.248 21.5117C151.925 21.5117 152.501 21.3551 152.975 21.042C153.457 20.7204 153.842 20.3395 154.13 19.8994L157.062 21.4102C156.648 22.2904 155.945 23.0055 154.955 23.5557C153.973 24.0973 152.759 24.3682 151.312 24.3682C149.162 24.3682 147.478 23.7673 146.259 22.5654C145.049 21.3551 144.443 19.7428 144.443 17.7285ZM158.738 17.7412V17.335C158.738 15.4222 159.25 13.8607 160.274 12.6504C161.307 11.4401 162.653 10.835 164.312 10.835C165.166 10.835 165.903 10.9831 166.521 11.2793C167.138 11.5755 167.617 11.9606 167.955 12.4346V4.81738H171.84V24H168.095L168.044 22.4131H167.993C167.688 22.9378 167.215 23.3779 166.571 23.7334C165.928 24.0804 165.179 24.2539 164.324 24.2539C162.589 24.2539 161.222 23.6488 160.224 22.4385C159.233 21.2197 158.738 19.654 158.738 17.7412ZM162.737 17.8682C162.737 18.9092 162.957 19.7555 163.397 20.4072C163.846 21.0589 164.519 21.3848 165.416 21.3848C166.025 21.3848 166.542 21.2155 166.965 20.877C167.396 20.5384 167.714 20.1364 167.917 19.6709V15.3799C167.722 14.9144 167.418 14.5208 167.003 14.1992C166.588 13.8691 166.059 13.7041 165.416 13.7041C164.527 13.7041 163.859 14.0299 163.41 14.6816C162.962 15.3333 162.737 16.1797 162.737 17.2207V17.8682Z" fill="black"/>
<path d="M28 27.0001L20.3893 7.47253L6.01585 5.05371L0 27.0001H28Z" fill="#D6A3E4"/>
<path d="M8.43789 16.8334C9.74235 16.8334 10.7998 15.7416 10.7998 14.3949C10.7998 13.0482 9.74235 11.9564 8.43789 11.9564C7.13343 11.9564 6.07596 13.0482 6.07596 14.3949C6.07596 15.7416 7.13343 16.8334 8.43789 16.8334Z" fill="white"/>
<path d="M17.6445 16.8334C18.949 16.8334 20.0064 15.7416 20.0064 14.3949C20.0064 13.0482 18.949 11.9564 17.6445 11.9564C16.34 11.9564 15.2826 13.0482 15.2826 14.3949C15.2826 15.7416 16.34 16.8334 17.6445 16.8334Z" fill="white"/>
<path d="M2.94733 0L3.89612 13.569L13.8687 7.6301L2.94733 0Z" fill="#D6A3E4"/>
<path d="M23.3362 2.69458L13.1416 7.8862L22.7508 14.3954L23.3362 2.69458Z" fill="#D6A3E4"/>
</svg>
