<svg width="56" height="52" viewBox="0 0 56 52" fill="none" xmlns="http://www.w3.org/2000/svg">
<rect width="56" height="52" fill="#D9D9D9"/>
<path d="M42 39.0001L34.3893 19.4725L20.0159 17.0537L14 39.0001H42Z" fill="#7B7B7B"/>
<path d="M22.4379 28.8334C23.7423 28.8334 24.7998 27.7416 24.7998 26.3949C24.7998 25.0482 23.7423 23.9564 22.4379 23.9564C21.1334 23.9564 20.076 25.0482 20.076 26.3949C20.076 27.7416 21.1334 28.8334 22.4379 28.8334Z" fill="white"/>
<path d="M31.6445 28.8334C32.949 28.8334 34.0064 27.7416 34.0064 26.3949C34.0064 25.0482 32.949 23.9564 31.6445 23.9564C30.34 23.9564 29.2826 25.0482 29.2826 26.3949C29.2826 27.7416 30.34 28.8334 31.6445 28.8334Z" fill="white"/>
<path d="M16.9473 12L17.8961 25.569L27.8687 19.6301L16.9473 12Z" fill="#7B7B7B"/>
<path d="M37.3362 14.6946L27.1416 19.8862L36.7508 26.3954L37.3362 14.6946Z" fill="#7B7B7B"/>
</svg>
