<?xml version='1.0' encoding='iso-8859-1'?>
<!DOCTYPE svg PUBLIC '-//W3C//DTD SVG 1.1//EN' 'http://www.w3.org/Graphics/SVG/1.1/DTD/svg11.dtd'>
<!-- Uploaded to: SVG Repo, www.svgrepo.com, Generator: SVG Repo Mixer Tools -->
<svg fill="#000000" height="800px" width="800px" version="1.1" xmlns="http://www.w3.org/2000/svg" viewBox="0 0 297 297" xmlns:xlink="http://www.w3.org/1999/xlink" enable-background="new 0 0 297 297">
  <path d="m290.354,79.817l-17.242-6.132c-3.872-1.377-6.869-4.226-8.442-8.022-1.572-3.796-1.467-7.93 0.297-11.642l7.856-16.527c1.815-3.819 1.031-8.368-1.959-11.358-2.991-2.989-7.538-3.775-11.358-1.959l-16.527,7.856c-3.712,1.765-7.847,1.869-11.642,0.297-3.796-1.572-6.645-4.57-8.022-8.442l-6.132-17.242c-1.417-3.984-5.188-6.646-9.417-6.646s-8,2.662-9.417,6.646l-6.132,17.243c-1.376,3.871-4.225,6.868-8.021,8.441-3.795,1.571-7.93,1.467-11.642-0.297l-16.527-7.856c-3.82-1.816-8.369-1.031-11.358,1.959-2.99,2.991-3.774,7.539-1.959,11.358l7.856,16.527c1.764,3.711 1.869,7.845 0.297,11.642-1.572,3.796-4.571,6.645-8.442,8.022l-17.243,6.132c-3.984,1.416-6.646,5.188-6.646,9.417 0,4.229 2.662,8.001 6.646,9.417l17.243,6.132c2.792,0.993 5.12,2.761 6.797,5.089l-52.701,52.702c-7.773,0.108-15.066,3.178-20.575,8.686l-67.245,67.244c-5.608,5.608-8.696,13.065-8.696,20.996 0,7.931 3.088,15.387 8.696,20.996l7.806,7.806c5.609,5.609 13.065,8.698 20.996,8.698 7.931,0 15.388-3.089 20.996-8.698l67.245-67.245c5.509-5.509 8.58-12.802 8.687-20.575l52.7-52.701c2.328,1.676 4.096,4.005 5.09,6.797l6.132,17.243c1.416,3.984 5.188,6.646 9.417,6.646s8.001-2.662 9.417-6.646l6.132-17.243c1.377-3.871 4.226-6.869 8.022-8.442 3.798-1.572 7.93-1.467 11.642,0.297l16.527,7.856c3.819,1.816 8.369,1.031 11.358-1.959 2.99-2.991 3.774-7.539 1.959-11.358l-7.856-16.527c-1.764-3.712-1.869-7.846-0.297-11.642 1.573-3.796 4.57-6.645 8.442-8.021l17.242-6.132c3.984-1.417 6.646-5.188 6.646-9.417-5.68434e-14-4.229-2.662-7.999-6.646-9.416zm-173.359,90.548l76.171-76.172c1.287-1.287 2.999-1.996 4.82-1.996 1.821,0 3.533,0.709 4.821,1.997 1.288,1.287 1.997,2.999 1.997,4.821 0,1.82-0.709,3.532-1.997,4.82l-76.17,76.171c-0.293-0.319-9.325-9.35-9.642-9.641zm-5.389,36.557l-67.245,67.245c-1.833,1.833-4.269,2.843-6.861,2.843-2.591,0-5.028-1.01-6.861-2.843l-7.806-7.806h-0.001c-1.832-1.833-2.841-4.269-2.841-6.861 0-2.592 1.009-5.028 2.842-6.861l67.245-67.245c1.833-1.833 4.269-2.842 6.861-2.842 2.591,0 5.028,1.009 6.861,2.842l7.807,7.806c1.832,1.833 2.842,4.269 2.842,6.861 0,2.592-1.01,5.028-2.843,6.861zm134.596-101.769c-2.741,6.616-3.316,13.887-1.752,20.764-6.877-1.563-14.147-0.989-20.763,1.752-6.615,2.74-12.163,7.475-15.921,13.443-1.771-2.814-3.947-5.346-6.442-7.526l15.616-15.616c5.064-5.063 7.852-11.795 7.852-18.955 0-7.16-2.788-13.892-7.851-18.956-5.064-5.063-11.795-7.851-18.956-7.851s-13.892,2.789-18.955,7.851l-15.617,15.617c-2.181-2.495-4.712-4.671-7.526-6.442 5.968-3.758 10.703-9.306 13.443-15.921 2.74-6.616 3.316-13.886 1.752-20.763 6.879,1.564 14.149,0.989 20.764-1.752 6.615-2.741 12.162-7.475 15.919-13.443 3.758,5.968 9.305,10.703 15.921,13.443 6.615,2.741 13.886,3.315 20.763,1.752-1.564,6.877-0.989,14.149 1.752,20.763 2.74,6.616 7.475,12.163 13.443,15.921-5.967,3.756-10.701,9.304-13.442,15.919z"/>
</svg>