<?xml version="1.0" encoding="utf-8"?><!-- Uploaded to: SVG Repo, www.svgrepo.com, Generator: SVG Repo Mixer Tools -->
<svg width="800px" height="800px" viewBox="0 0 24 24" fill="none" xmlns="http://www.w3.org/2000/svg">
<path d="M5 18L9.08419 8.19794C9.42316 7.38442 9.59264 6.97767 9.8379 6.62563C10.0554 6.31337 10.3164 6.03375 10.613 5.79524C10.9473 5.52634 11.3415 5.32927 12.1297 4.93514L16 3L15.1866 7.06721C15.1172 7.41402 15.0825 7.58744 15.0783 7.76119C15.0746 7.91543 15.0888 8.06957 15.1205 8.22055C15.1563 8.39064 15.2219 8.55484 15.3533 8.88323L19 18M14 18V14H10V18M4.5 21H19.5C20.3284 21 21 20.3284 21 19.5C21 18.6716 20.3284 18 19.5 18H4.5C3.67157 18 3 18.6716 3 19.5C3 20.3284 3.67157 21 4.5 21Z" stroke="#000000" stroke-width="2" stroke-linecap="round" stroke-linejoin="round"/>
</svg>