<?xml version="1.0" encoding="iso-8859-1"?>
<!-- Uploaded to: SVG Repo, www.svgrepo.com, Generator: SVG Repo Mixer Tools -->
<svg fill="#000000" height="800px" width="800px" version="1.1" id="Layer_1" xmlns="http://www.w3.org/2000/svg" xmlns:xlink="http://www.w3.org/1999/xlink" 
	 viewBox="0 0 511.999 511.999" xml:space="preserve">
<g>
	<g>
		<path d="M506.429,215.093c-3.535-3.033-8.219-4.367-12.824-3.656l-62.496,9.662l-52.243-2.946
			c6.544-18.619,7.156-39.09,1.248-58.64c-1.835-6.073-7.094-10.483-13.392-11.231c-20.972-2.489-41.695,2.048-59.265,12.452
			c-0.919-30.845-16.738-59.153-42.717-76.157c-5.308-3.474-12.169-3.474-17.478,0c-25.979,17.003-41.798,45.311-42.717,76.157
			c-17.57-10.404-38.294-14.941-59.265-12.452c-6.299,0.748-11.557,5.157-13.392,11.231c-5.908,19.551-5.297,40.022,1.248,58.64
			l-52.243,2.946l-62.496-9.662c-4.604-0.715-9.288,0.624-12.824,3.656C2.035,218.125,0,222.55,0,227.208
			c0,43.098,16.047,84.302,45.184,116.022c28.956,31.521,68.293,50.991,110.764,54.823c9.514,0.859,19.339,3.146,29.202,6.798
			l65.309,24.184c0.113,0.042,0.229,0.07,0.343,0.11c0.258,0.089,0.517,0.174,0.781,0.25c0.227,0.066,0.455,0.121,0.684,0.177
			c0.249,0.06,0.497,0.12,0.749,0.168c0.282,0.054,0.565,0.091,0.849,0.13c0.207,0.028,0.412,0.063,0.621,0.083
			c0.503,0.048,1.009,0.077,1.514,0.077s1.011-0.029,1.514-0.077c0.21-0.02,0.414-0.055,0.621-0.083
			c0.284-0.038,0.567-0.076,0.849-0.13c0.253-0.048,0.501-0.108,0.749-0.168c0.229-0.055,0.457-0.111,0.684-0.177
			c0.264-0.076,0.523-0.161,0.781-0.25c0.114-0.039,0.23-0.068,0.343-0.11l65.309-24.184c9.863-3.652,19.688-5.939,29.201-6.798
			c42.473-3.833,81.809-23.302,110.765-54.823c29.138-31.719,45.184-72.923,45.184-116.022
			C512,222.55,509.965,218.125,506.429,215.093z M307.649,201.851c11.175-13.326,27.15-21.224,44.187-22.214
			c1.997,16.948-2.995,34.056-14.169,47.382c-11.175,13.327-27.151,21.225-44.187,22.215
			C291.483,232.286,296.474,215.177,307.649,201.851z M160.165,179.638c17.035,0.989,33.012,8.887,44.187,22.214
			c11.174,13.326,16.166,30.435,14.169,47.383c-17.035-0.989-33.012-8.887-44.187-22.215
			C163.159,213.693,158.168,196.585,160.165,179.638z M240.043,391.143l-43.81-16.223c-12.507-4.632-25.095-7.543-37.417-8.655
			C92.811,360.309,41.614,310.028,33.147,246.01l44.528,6.887c1.102,0.17,2.22,0.223,3.337,0.162l70.222-3.961
			c18.038,20.587,43.813,32.158,70.892,32.158c3.74,0,7.508-0.221,11.281-0.669c2.41-0.286,4.665-1.112,6.636-2.358V391.143z
			 M256.001,208.992c-12.419-11.702-19.586-28.019-19.586-45.412s7.167-33.71,19.586-45.412
			c12.419,11.702,19.586,28.019,19.586,45.412S268.419,197.291,256.001,208.992z M353.182,366.268
			c-12.32,1.112-24.908,4.023-37.415,8.655l-43.809,16.222V278.23c1.971,1.246,4.227,2.071,6.636,2.358
			c3.774,0.448,7.538,0.669,11.281,0.669c27.077,0,52.855-11.573,70.892-32.158l70.222,3.961c1.114,0.061,2.234,0.009,3.337-0.162
			l44.527-6.885C470.386,310.031,419.189,360.313,353.182,366.268z"/>
	</g>
</g>
<g>
	<g>
		<path d="M416.968,293.961c-1.824-4.742-5.8-8.333-10.704-9.667c-30.072-8.18-55.275-6.419-74.91,5.236
			c-23.456,13.926-29.398,36.454-29.998,38.976c-1.131,4.75-0.023,9.755,3.002,13.586c3.027,3.832,7.64,6.066,12.522,6.066
			c72.222-0.001,97.582-38.221,98.625-39.848C418.25,304.033,418.794,298.705,416.968,293.961z"/>
	</g>
</g>
<g>
	<g>
		<path d="M210.644,328.506c-0.6-2.522-6.542-25.05-29.998-38.976c-19.634-11.656-44.837-13.417-74.91-5.236
			c-4.903,1.334-8.88,4.924-10.704,9.667c-1.826,4.744-1.282,10.072,1.463,14.349c1.045,1.629,26.403,39.848,98.625,39.848
			c4.882,0,9.496-2.235,12.522-6.066S211.775,333.256,210.644,328.506z"/>
	</g>
</g>
</svg>